<?xml version="1.0" encoding="utf-8"?>
<svg viewBox="0 0 219.114 192.707" xmlns="http://www.w3.org/2000/svg">
  <g style="" transform="matrix(1, 0, 0, 1, -152.250002, -160.953127)">
    <path d="M 169.201 242.769 L 169.201 202.269 C 169.201 199.969 169.324 198.519 169.571 197.919 C 169.824 197.319 170.701 196.519 172.201 195.519 L 175.501 193.269 C 177.001 192.269 178.051 191.669 178.651 191.469 C 179.251 191.269 180.501 191.169 182.401 191.169 L 185.101 191.169 L 185.101 197.019 C 185.101 199.319 184.978 200.742 184.731 201.289 C 184.478 201.842 183.701 202.619 182.401 203.619 C 181.201 204.419 180.501 205.096 180.301 205.649 C 180.101 206.196 180.001 207.619 180.001 209.919 L 180.001 246.819 C 180.001 249.119 179.878 250.596 179.631 251.249 C 179.378 251.896 178.501 252.819 177.001 254.019 L 173.101 257.169 C 171.901 258.169 170.801 258.669 169.801 258.669 L 169.801 259.269 C 170.801 259.269 171.901 259.769 173.101 260.769 L 177.001 263.919 C 178.501 265.119 179.378 266.046 179.631 266.699 C 179.878 267.346 180.001 268.819 180.001 271.119 L 180.001 295.419 C 180.001 297.719 180.101 299.142 180.301 299.689 C 180.501 300.242 181.201 300.919 182.401 301.719 C 183.701 302.719 184.478 303.496 184.731 304.049 C 184.978 304.596 185.101 306.019 185.101 308.319 L 185.101 314.169 L 182.401 314.169 C 180.501 314.169 179.251 314.069 178.651 313.869 C 178.051 313.669 177.001 313.069 175.501 312.069 L 172.201 309.819 C 170.701 308.819 169.824 308.019 169.571 307.419 C 169.324 306.819 169.201 305.369 169.201 303.069 L 169.201 275.169 C 169.201 272.969 168.301 271.069 166.501 269.469 L 161.251 264.969 L 161.251 252.969 L 166.501 248.469 C 168.301 246.869 169.201 244.969 169.201 242.769 Z" transform="matrix(1, 0, 0, 1, 0, 0)" style="fill: rgb(78, 46, 255); white-space: pre;"/>
    <path d="M 254.6 249.669 L 218.75 249.669 C 216.35 249.669 213.95 248.669 211.55 246.669 L 207.5 243.219 C 205.4 241.519 204.35 239.519 204.35 237.219 L 204.35 206.169 C 204.35 203.169 205.55 200.669 207.95 198.669 L 211.55 195.669 C 213.95 193.669 216.35 192.669 218.75 192.669 L 258.65 192.669 C 261.05 192.669 263.45 193.669 265.85 195.669 L 269.45 198.669 C 271.85 200.669 273.05 203.169 273.05 206.169 L 273.05 212.169 L 260.45 212.169 L 260.45 209.319 C 260.45 207.819 260.376 206.846 260.23 206.399 C 260.076 205.946 259.55 205.369 258.65 204.669 C 257.75 203.969 257.05 203.546 256.55 203.399 C 256.05 203.246 254.9 203.169 253.1 203.169 L 224.3 203.169 C 222.5 203.169 221.35 203.246 220.85 203.399 C 220.35 203.546 219.65 203.969 218.75 204.669 C 217.85 205.369 217.323 205.946 217.17 206.399 C 217.023 206.846 216.95 207.819 216.95 209.319 L 216.95 233.019 C 216.95 234.519 217.023 235.496 217.17 235.949 C 217.323 236.396 217.85 236.969 218.75 237.669 C 219.65 238.369 220.35 238.796 220.85 238.949 C 221.35 239.096 222.5 239.169 224.3 239.169 L 260.15 239.169 C 262.55 239.169 264.95 240.169 267.35 242.169 L 270.95 245.169 C 273.35 247.169 274.55 249.669 274.55 252.669 L 274.55 284.169 C 274.55 287.169 273.35 289.669 270.95 291.669 L 267.35 294.669 C 264.95 296.669 262.55 297.669 260.15 297.669 L 217.25 297.669 C 214.85 297.669 212.45 296.669 210.05 294.669 L 206.45 291.669 C 204.05 289.669 202.85 287.169 202.85 284.169 L 202.85 278.169 L 215.45 278.169 L 215.45 281.019 C 215.45 282.519 215.523 283.496 215.67 283.949 C 215.823 284.396 216.35 284.969 217.25 285.669 C 218.15 286.369 218.85 286.796 219.35 286.949 C 219.85 287.096 221 287.169 222.8 287.169 L 254.6 287.169 C 256.4 287.169 257.55 287.096 258.05 286.949 C 258.55 286.796 259.25 286.369 260.15 285.669 C 261.05 284.969 261.576 284.396 261.73 283.949 C 261.876 283.496 261.95 282.519 261.95 281.019 L 261.95 255.819 C 261.95 254.319 261.876 253.346 261.73 252.899 C 261.576 252.446 261.05 251.869 260.15 251.169 C 259.25 250.469 258.55 250.046 258.05 249.899 C 257.55 249.746 256.4 249.669 254.6 249.669 ZM 300.798 297.669 L 300.798 192.669 L 313.398 192.669 L 313.398 297.669 L 300.798 297.669 Z" transform="matrix(1, 0, 0, 1, 0, 0)" style="fill: rgb(51, 51, 51); white-space: pre;"/>
    <path d="M 353.297 202.269 L 353.297 242.769 C 353.297 244.969 354.197 246.869 355.997 248.469 L 361.247 252.969 L 361.247 264.969 L 355.997 269.469 C 354.197 271.069 353.297 272.969 353.297 275.169 L 353.297 303.069 C 353.297 305.369 353.171 306.819 352.917 307.419 C 352.671 308.019 351.797 308.819 350.297 309.819 L 346.997 312.069 C 345.497 313.069 344.447 313.669 343.847 313.869 C 343.247 314.069 341.997 314.169 340.097 314.169 L 337.397 314.169 L 337.397 308.319 C 337.397 306.019 337.524 304.596 337.777 304.049 C 338.024 303.496 338.797 302.719 340.097 301.719 C 341.297 300.919 341.997 300.242 342.197 299.689 C 342.397 299.142 342.497 297.719 342.497 295.419 L 342.497 271.119 C 342.497 268.819 342.621 267.346 342.867 266.699 C 343.121 266.046 343.997 265.119 345.497 263.919 L 349.397 260.769 C 350.597 259.769 351.697 259.269 352.697 259.269 L 352.697 258.669 C 351.697 258.669 350.597 258.169 349.397 257.169 L 345.497 254.019 C 343.997 252.819 343.121 251.896 342.867 251.249 C 342.621 250.596 342.497 249.119 342.497 246.819 L 342.497 209.919 C 342.497 207.619 342.397 206.196 342.197 205.649 C 341.997 205.096 341.297 204.419 340.097 203.619 C 338.797 202.619 338.024 201.842 337.777 201.289 C 337.524 200.742 337.397 199.319 337.397 197.019 L 337.397 191.169 L 340.097 191.169 C 341.997 191.169 343.247 191.269 343.847 191.469 C 344.447 191.669 345.497 192.269 346.997 193.269 L 350.297 195.519 C 351.797 196.519 352.671 197.319 352.917 197.919 C 353.171 198.519 353.297 199.969 353.297 202.269 Z" transform="matrix(1, 0, 0, 1, 0, 0)" style="fill: rgb(78, 46, 255); white-space: pre;"/>
    <path d="M 187.85 333.085 L 187.85 342.045 L 185.5 342.045 L 185.5 322.445 L 196.92 322.445 L 196.92 324.405 L 187.85 324.405 L 187.85 331.125 L 195.36 331.125 L 195.36 333.085 L 187.85 333.085 ZM 219.69 342.045 L 217.34 342.045 L 224.06 322.445 L 227.36 322.445 L 234.22 342.045 L 231.87 342.045 L 230.42 337.985 L 221.09 337.985 L 219.69 342.045 Z M 225.77 324.125 L 225.66 324.125 C 225.66 324.352 225.593 324.622 225.46 324.935 L 221.68 336.165 L 229.83 336.165 L 225.96 324.935 C 225.833 324.622 225.77 324.352 225.77 324.125 ZM 252.649 324.405 L 252.649 322.445 L 267.439 322.445 L 267.439 324.405 L 261.219 324.405 L 261.219 342.045 L 258.869 342.045 L 258.869 324.405 L 252.649 324.405 ZM 289.641 340.085 L 299.831 340.085 L 299.831 342.045 L 287.291 342.045 L 287.291 322.445 L 299.831 322.445 L 299.831 324.405 L 289.641 324.405 L 289.641 331.125 L 298.271 331.125 L 298.271 333.085 L 289.641 333.085 L 289.641 340.085 ZM 336.321 324.965 L 336.321 326.085 L 333.971 326.085 L 333.971 325.555 C 333.971 325.275 333.958 325.092 333.931 325.005 C 333.904 324.925 333.804 324.818 333.631 324.685 C 333.464 324.552 333.334 324.472 333.241 324.445 C 333.148 324.418 332.934 324.405 332.601 324.405 L 325.651 324.405 C 325.318 324.405 325.104 324.418 325.011 324.445 C 324.918 324.472 324.788 324.552 324.621 324.685 C 324.454 324.818 324.354 324.925 324.321 325.005 C 324.294 325.092 324.281 325.275 324.281 325.555 L 324.281 338.935 C 324.281 339.215 324.294 339.398 324.321 339.485 C 324.354 339.565 324.454 339.672 324.621 339.805 C 324.788 339.938 324.918 340.018 325.011 340.045 C 325.104 340.072 325.318 340.085 325.651 340.085 L 332.601 340.085 C 332.934 340.085 333.148 340.072 333.241 340.045 C 333.334 340.018 333.464 339.938 333.631 339.805 C 333.804 339.672 333.904 339.565 333.931 339.485 C 333.958 339.398 333.971 339.215 333.971 338.935 L 333.971 338.405 L 336.321 338.405 L 336.321 339.525 C 336.321 340.085 336.098 340.552 335.651 340.925 L 334.981 341.485 C 334.534 341.858 334.084 342.045 333.631 342.045 L 324.621 342.045 C 324.174 342.045 323.724 341.858 323.271 341.485 L 322.601 340.925 C 322.154 340.552 321.931 340.085 321.931 339.525 L 321.931 324.965 C 321.931 324.405 322.154 323.938 322.601 323.565 L 323.271 323.005 C 323.724 322.632 324.174 322.445 324.621 322.445 L 333.631 322.445 C 334.084 322.445 334.534 322.632 334.981 323.005 L 335.651 323.565 C 336.098 323.938 336.321 324.405 336.321 324.965 Z" transform="matrix(1, 0, 0, 1, 0, 0)" style="fill: rgb(51, 51, 51); white-space: pre;"/>
  </g>
  <g style="visibility: hidden;" transform="matrix(1, 0, 0, 1, -152.250002, -160.953127)">
    <path d="M 169.201 242.769 L 169.201 202.269 C 169.201 199.969 169.324 198.519 169.571 197.919 C 169.824 197.319 170.701 196.519 172.201 195.519 L 175.501 193.269 C 177.001 192.269 178.051 191.669 178.651 191.469 C 179.251 191.269 180.501 191.169 182.401 191.169 L 185.101 191.169 L 185.101 197.019 C 185.101 199.319 184.978 200.742 184.731 201.289 C 184.478 201.842 183.701 202.619 182.401 203.619 C 181.201 204.419 180.501 205.096 180.301 205.649 C 180.101 206.196 180.001 207.619 180.001 209.919 L 180.001 246.819 C 180.001 249.119 179.878 250.596 179.631 251.249 C 179.378 251.896 178.501 252.819 177.001 254.019 L 173.101 257.169 C 171.901 258.169 170.801 258.669 169.801 258.669 L 169.801 259.269 C 170.801 259.269 171.901 259.769 173.101 260.769 L 177.001 263.919 C 178.501 265.119 179.378 266.046 179.631 266.699 C 179.878 267.346 180.001 268.819 180.001 271.119 L 180.001 295.419 C 180.001 297.719 180.101 299.142 180.301 299.689 C 180.501 300.242 181.201 300.919 182.401 301.719 C 183.701 302.719 184.478 303.496 184.731 304.049 C 184.978 304.596 185.101 306.019 185.101 308.319 L 185.101 314.169 L 182.401 314.169 C 180.501 314.169 179.251 314.069 178.651 313.869 C 178.051 313.669 177.001 313.069 175.501 312.069 L 172.201 309.819 C 170.701 308.819 169.824 308.019 169.571 307.419 C 169.324 306.819 169.201 305.369 169.201 303.069 L 169.201 275.169 C 169.201 272.969 168.301 271.069 166.501 269.469 L 161.251 264.969 L 161.251 252.969 L 166.501 248.469 C 168.301 246.869 169.201 244.969 169.201 242.769 Z" transform="matrix(1, 0, 0, 1, 0, 0)" style="fill: rgb(51, 51, 51); white-space: pre;"/>
    <path d="M 254.6 249.669 L 218.75 249.669 C 216.35 249.669 213.95 248.669 211.55 246.669 L 207.5 243.219 C 205.4 241.519 204.35 239.519 204.35 237.219 L 204.35 206.169 C 204.35 203.169 205.55 200.669 207.95 198.669 L 211.55 195.669 C 213.95 193.669 216.35 192.669 218.75 192.669 L 258.65 192.669 C 261.05 192.669 263.45 193.669 265.85 195.669 L 269.45 198.669 C 271.85 200.669 273.05 203.169 273.05 206.169 L 273.05 212.169 L 260.45 212.169 L 260.45 209.319 C 260.45 207.819 260.376 206.846 260.23 206.399 C 260.076 205.946 259.55 205.369 258.65 204.669 C 257.75 203.969 257.05 203.546 256.55 203.399 C 256.05 203.246 254.9 203.169 253.1 203.169 L 224.3 203.169 C 222.5 203.169 221.35 203.246 220.85 203.399 C 220.35 203.546 219.65 203.969 218.75 204.669 C 217.85 205.369 217.323 205.946 217.17 206.399 C 217.023 206.846 216.95 207.819 216.95 209.319 L 216.95 233.019 C 216.95 234.519 217.023 235.496 217.17 235.949 C 217.323 236.396 217.85 236.969 218.75 237.669 C 219.65 238.369 220.35 238.796 220.85 238.949 C 221.35 239.096 222.5 239.169 224.3 239.169 L 260.15 239.169 C 262.55 239.169 264.95 240.169 267.35 242.169 L 270.95 245.169 C 273.35 247.169 274.55 249.669 274.55 252.669 L 274.55 284.169 C 274.55 287.169 273.35 289.669 270.95 291.669 L 267.35 294.669 C 264.95 296.669 262.55 297.669 260.15 297.669 L 217.25 297.669 C 214.85 297.669 212.45 296.669 210.05 294.669 L 206.45 291.669 C 204.05 289.669 202.85 287.169 202.85 284.169 L 202.85 278.169 L 215.45 278.169 L 215.45 281.019 C 215.45 282.519 215.523 283.496 215.67 283.949 C 215.823 284.396 216.35 284.969 217.25 285.669 C 218.15 286.369 218.85 286.796 219.35 286.949 C 219.85 287.096 221 287.169 222.8 287.169 L 254.6 287.169 C 256.4 287.169 257.55 287.096 258.05 286.949 C 258.55 286.796 259.25 286.369 260.15 285.669 C 261.05 284.969 261.576 284.396 261.73 283.949 C 261.876 283.496 261.95 282.519 261.95 281.019 L 261.95 255.819 C 261.95 254.319 261.876 253.346 261.73 252.899 C 261.576 252.446 261.05 251.869 260.15 251.169 C 259.25 250.469 258.55 250.046 258.05 249.899 C 257.55 249.746 256.4 249.669 254.6 249.669 ZM 300.798 297.669 L 300.798 192.669 L 313.398 192.669 L 313.398 297.669 L 300.798 297.669 Z" transform="matrix(1, 0, 0, 1, 0, 0)" style="fill: rgb(51, 51, 51); white-space: pre;"/>
    <path d="M 353.297 202.269 L 353.297 242.769 C 353.297 244.969 354.197 246.869 355.997 248.469 L 361.247 252.969 L 361.247 264.969 L 355.997 269.469 C 354.197 271.069 353.297 272.969 353.297 275.169 L 353.297 303.069 C 353.297 305.369 353.171 306.819 352.917 307.419 C 352.671 308.019 351.797 308.819 350.297 309.819 L 346.997 312.069 C 345.497 313.069 344.447 313.669 343.847 313.869 C 343.247 314.069 341.997 314.169 340.097 314.169 L 337.397 314.169 L 337.397 308.319 C 337.397 306.019 337.524 304.596 337.777 304.049 C 338.024 303.496 338.797 302.719 340.097 301.719 C 341.297 300.919 341.997 300.242 342.197 299.689 C 342.397 299.142 342.497 297.719 342.497 295.419 L 342.497 271.119 C 342.497 268.819 342.621 267.346 342.867 266.699 C 343.121 266.046 343.997 265.119 345.497 263.919 L 349.397 260.769 C 350.597 259.769 351.697 259.269 352.697 259.269 L 352.697 258.669 C 351.697 258.669 350.597 258.169 349.397 257.169 L 345.497 254.019 C 343.997 252.819 343.121 251.896 342.867 251.249 C 342.621 250.596 342.497 249.119 342.497 246.819 L 342.497 209.919 C 342.497 207.619 342.397 206.196 342.197 205.649 C 341.997 205.096 341.297 204.419 340.097 203.619 C 338.797 202.619 338.024 201.842 337.777 201.289 C 337.524 200.742 337.397 199.319 337.397 197.019 L 337.397 191.169 L 340.097 191.169 C 341.997 191.169 343.247 191.269 343.847 191.469 C 344.447 191.669 345.497 192.269 346.997 193.269 L 350.297 195.519 C 351.797 196.519 352.671 197.319 352.917 197.919 C 353.171 198.519 353.297 199.969 353.297 202.269 Z" transform="matrix(1, 0, 0, 1, 0, 0)" style="fill: rgb(51, 51, 51); white-space: pre;"/>
    <path d="M 187.85 333.085 L 187.85 342.045 L 185.5 342.045 L 185.5 322.445 L 196.92 322.445 L 196.92 324.405 L 187.85 324.405 L 187.85 331.125 L 195.36 331.125 L 195.36 333.085 L 187.85 333.085 ZM 219.69 342.045 L 217.34 342.045 L 224.06 322.445 L 227.36 322.445 L 234.22 342.045 L 231.87 342.045 L 230.42 337.985 L 221.09 337.985 L 219.69 342.045 Z M 225.77 324.125 L 225.66 324.125 C 225.66 324.352 225.593 324.622 225.46 324.935 L 221.68 336.165 L 229.83 336.165 L 225.96 324.935 C 225.833 324.622 225.77 324.352 225.77 324.125 ZM 252.649 324.405 L 252.649 322.445 L 267.439 322.445 L 267.439 324.405 L 261.219 324.405 L 261.219 342.045 L 258.869 342.045 L 258.869 324.405 L 252.649 324.405 ZM 289.641 340.085 L 299.831 340.085 L 299.831 342.045 L 287.291 342.045 L 287.291 322.445 L 299.831 322.445 L 299.831 324.405 L 289.641 324.405 L 289.641 331.125 L 298.271 331.125 L 298.271 333.085 L 289.641 333.085 L 289.641 340.085 ZM 336.321 324.965 L 336.321 326.085 L 333.971 326.085 L 333.971 325.555 C 333.971 325.275 333.958 325.092 333.931 325.005 C 333.904 324.925 333.804 324.818 333.631 324.685 C 333.464 324.552 333.334 324.472 333.241 324.445 C 333.148 324.418 332.934 324.405 332.601 324.405 L 325.651 324.405 C 325.318 324.405 325.104 324.418 325.011 324.445 C 324.918 324.472 324.788 324.552 324.621 324.685 C 324.454 324.818 324.354 324.925 324.321 325.005 C 324.294 325.092 324.281 325.275 324.281 325.555 L 324.281 338.935 C 324.281 339.215 324.294 339.398 324.321 339.485 C 324.354 339.565 324.454 339.672 324.621 339.805 C 324.788 339.938 324.918 340.018 325.011 340.045 C 325.104 340.072 325.318 340.085 325.651 340.085 L 332.601 340.085 C 332.934 340.085 333.148 340.072 333.241 340.045 C 333.334 340.018 333.464 339.938 333.631 339.805 C 333.804 339.672 333.904 339.565 333.931 339.485 C 333.958 339.398 333.971 339.215 333.971 338.935 L 333.971 338.405 L 336.321 338.405 L 336.321 339.525 C 336.321 340.085 336.098 340.552 335.651 340.925 L 334.981 341.485 C 334.534 341.858 334.084 342.045 333.631 342.045 L 324.621 342.045 C 324.174 342.045 323.724 341.858 323.271 341.485 L 322.601 340.925 C 322.154 340.552 321.931 340.085 321.931 339.525 L 321.931 324.965 C 321.931 324.405 322.154 323.938 322.601 323.565 L 323.271 323.005 C 323.724 322.632 324.174 322.445 324.621 322.445 L 333.631 322.445 C 334.084 322.445 334.534 322.632 334.981 323.005 L 335.651 323.565 C 336.098 323.938 336.321 324.405 336.321 324.965 Z" transform="matrix(1, 0, 0, 1, 0, 0)" style="fill: rgb(51, 51, 51); white-space: pre;"/>
  </g>
  <g style="visibility: hidden;" transform="matrix(1, 0, 0, 1, -11.258001, -5.234)">
    <rect x="11.258" y="5.234" width="219.127" height="192.705" style="fill: rgb(51, 51, 51);"/>
    <path d="M 28.209 87.05 L 28.209 46.55 C 28.209 44.25 28.332 42.8 28.579 42.2 C 28.832 41.6 29.709 40.8 31.209 39.8 L 34.509 37.55 C 36.009 36.55 37.059 35.95 37.659 35.75 C 38.259 35.55 39.509 35.45 41.409 35.45 L 44.109 35.45 L 44.109 41.3 C 44.109 43.6 43.986 45.023 43.739 45.57 C 43.486 46.123 42.709 46.9 41.409 47.9 C 40.209 48.7 39.509 49.377 39.309 49.93 C 39.109 50.477 39.009 51.9 39.009 54.2 L 39.009 91.1 C 39.009 93.4 38.886 94.877 38.639 95.53 C 38.386 96.177 37.509 97.1 36.009 98.3 L 32.109 101.45 C 30.909 102.45 29.809 102.95 28.809 102.95 L 28.809 103.55 C 29.809 103.55 30.909 104.05 32.109 105.05 L 36.009 108.2 C 37.509 109.4 38.386 110.327 38.639 110.98 C 38.886 111.627 39.009 113.1 39.009 115.4 L 39.009 139.7 C 39.009 142 39.109 143.423 39.309 143.97 C 39.509 144.523 40.209 145.2 41.409 146 C 42.709 147 43.486 147.777 43.739 148.33 C 43.986 148.877 44.109 150.3 44.109 152.6 L 44.109 158.45 L 41.409 158.45 C 39.509 158.45 38.259 158.35 37.659 158.15 C 37.059 157.95 36.009 157.35 34.509 156.35 L 31.209 154.1 C 29.709 153.1 28.832 152.3 28.579 151.7 C 28.332 151.1 28.209 149.65 28.209 147.35 L 28.209 119.45 C 28.209 117.25 27.309 115.35 25.509 113.75 L 20.259 109.25 L 20.259 97.25 L 25.509 92.75 C 27.309 91.15 28.209 89.25 28.209 87.05 Z" transform="matrix(1, 0, 0, 1, 0, 0)" style="fill: rgb(255, 255, 255); white-space: pre;"/>
    <path d="M 113.608 93.95 L 77.758 93.95 C 75.358 93.95 72.958 92.95 70.558 90.95 L 66.508 87.5 C 64.408 85.8 63.358 83.8 63.358 81.5 L 63.358 50.45 C 63.358 47.45 64.558 44.95 66.958 42.95 L 70.558 39.95 C 72.958 37.95 75.358 36.95 77.758 36.95 L 117.658 36.95 C 120.058 36.95 122.458 37.95 124.858 39.95 L 128.458 42.95 C 130.858 44.95 132.058 47.45 132.058 50.45 L 132.058 56.45 L 119.458 56.45 L 119.458 53.6 C 119.458 52.1 119.384 51.127 119.238 50.68 C 119.084 50.227 118.558 49.65 117.658 48.95 C 116.758 48.25 116.058 47.827 115.558 47.68 C 115.058 47.527 113.908 47.45 112.108 47.45 L 83.308 47.45 C 81.508 47.45 80.358 47.527 79.858 47.68 C 79.358 47.827 78.658 48.25 77.758 48.95 C 76.858 49.65 76.331 50.227 76.178 50.68 C 76.031 51.127 75.958 52.1 75.958 53.6 L 75.958 77.3 C 75.958 78.8 76.031 79.777 76.178 80.23 C 76.331 80.677 76.858 81.25 77.758 81.95 C 78.658 82.65 79.358 83.077 79.858 83.23 C 80.358 83.377 81.508 83.45 83.308 83.45 L 119.158 83.45 C 121.558 83.45 123.958 84.45 126.358 86.45 L 129.958 89.45 C 132.358 91.45 133.558 93.95 133.558 96.95 L 133.558 128.45 C 133.558 131.45 132.358 133.95 129.958 135.95 L 126.358 138.95 C 123.958 140.95 121.558 141.95 119.158 141.95 L 76.258 141.95 C 73.858 141.95 71.458 140.95 69.058 138.95 L 65.458 135.95 C 63.058 133.95 61.858 131.45 61.858 128.45 L 61.858 122.45 L 74.458 122.45 L 74.458 125.3 C 74.458 126.8 74.531 127.777 74.678 128.23 C 74.831 128.677 75.358 129.25 76.258 129.95 C 77.158 130.65 77.858 131.077 78.358 131.23 C 78.858 131.377 80.008 131.45 81.808 131.45 L 113.608 131.45 C 115.408 131.45 116.558 131.377 117.058 131.23 C 117.558 131.077 118.258 130.65 119.158 129.95 C 120.058 129.25 120.584 128.677 120.738 128.23 C 120.884 127.777 120.958 126.8 120.958 125.3 L 120.958 100.1 C 120.958 98.6 120.884 97.627 120.738 97.18 C 120.584 96.727 120.058 96.15 119.158 95.45 C 118.258 94.75 117.558 94.327 117.058 94.18 C 116.558 94.027 115.408 93.95 113.608 93.95 ZM 159.806 141.95 L 159.806 36.95 L 172.406 36.95 L 172.406 141.95 L 159.806 141.95 Z" transform="matrix(1, 0, 0, 1, 0, 0)" style="fill: rgb(255, 255, 255); white-space: pre;"/>
    <path d="M 212.305 46.55 L 212.305 87.05 C 212.305 89.25 213.205 91.15 215.005 92.75 L 220.255 97.25 L 220.255 109.25 L 215.005 113.75 C 213.205 115.35 212.305 117.25 212.305 119.45 L 212.305 147.35 C 212.305 149.65 212.179 151.1 211.925 151.7 C 211.679 152.3 210.805 153.1 209.305 154.1 L 206.005 156.35 C 204.505 157.35 203.455 157.95 202.855 158.15 C 202.255 158.35 201.005 158.45 199.105 158.45 L 196.405 158.45 L 196.405 152.6 C 196.405 150.3 196.532 148.877 196.785 148.33 C 197.032 147.777 197.805 147 199.105 146 C 200.305 145.2 201.005 144.523 201.205 143.97 C 201.405 143.423 201.505 142 201.505 139.7 L 201.505 115.4 C 201.505 113.1 201.629 111.627 201.875 110.98 C 202.129 110.327 203.005 109.4 204.505 108.2 L 208.405 105.05 C 209.605 104.05 210.705 103.55 211.705 103.55 L 211.705 102.95 C 210.705 102.95 209.605 102.45 208.405 101.45 L 204.505 98.3 C 203.005 97.1 202.129 96.177 201.875 95.53 C 201.629 94.877 201.505 93.4 201.505 91.1 L 201.505 54.2 C 201.505 51.9 201.405 50.477 201.205 49.93 C 201.005 49.377 200.305 48.7 199.105 47.9 C 197.805 46.9 197.032 46.123 196.785 45.57 C 196.532 45.023 196.405 43.6 196.405 41.3 L 196.405 35.45 L 199.105 35.45 C 201.005 35.45 202.255 35.55 202.855 35.75 C 203.455 35.95 204.505 36.55 206.005 37.55 L 209.305 39.8 C 210.805 40.8 211.679 41.6 211.925 42.2 C 212.179 42.8 212.305 44.25 212.305 46.55 Z" transform="matrix(1, 0, 0, 1, 0, 0)" style="fill: rgb(255, 255, 255); white-space: pre;"/>
    <path d="M 46.858 177.366 L 46.858 186.326 L 44.508 186.326 L 44.508 166.726 L 55.928 166.726 L 55.928 168.686 L 46.858 168.686 L 46.858 175.406 L 54.368 175.406 L 54.368 177.366 L 46.858 177.366 ZM 78.698 186.326 L 76.348 186.326 L 83.068 166.726 L 86.368 166.726 L 93.228 186.326 L 90.878 186.326 L 89.428 182.266 L 80.098 182.266 L 78.698 186.326 Z M 84.778 168.406 L 84.668 168.406 C 84.668 168.633 84.601 168.903 84.468 169.216 L 80.688 180.446 L 88.838 180.446 L 84.968 169.216 C 84.841 168.903 84.778 168.633 84.778 168.406 ZM 111.657 168.686 L 111.657 166.726 L 126.447 166.726 L 126.447 168.686 L 120.227 168.686 L 120.227 186.326 L 117.877 186.326 L 117.877 168.686 L 111.657 168.686 ZM 148.649 184.366 L 158.839 184.366 L 158.839 186.326 L 146.299 186.326 L 146.299 166.726 L 158.839 166.726 L 158.839 168.686 L 148.649 168.686 L 148.649 175.406 L 157.279 175.406 L 157.279 177.366 L 148.649 177.366 L 148.649 184.366 ZM 195.329 169.246 L 195.329 170.366 L 192.979 170.366 L 192.979 169.836 C 192.979 169.556 192.966 169.373 192.939 169.286 C 192.912 169.206 192.812 169.099 192.639 168.966 C 192.472 168.833 192.342 168.753 192.249 168.726 C 192.156 168.699 191.942 168.686 191.609 168.686 L 184.659 168.686 C 184.326 168.686 184.112 168.699 184.019 168.726 C 183.926 168.753 183.796 168.833 183.629 168.966 C 183.462 169.099 183.362 169.206 183.329 169.286 C 183.302 169.373 183.289 169.556 183.289 169.836 L 183.289 183.216 C 183.289 183.496 183.302 183.679 183.329 183.766 C 183.362 183.846 183.462 183.953 183.629 184.086 C 183.796 184.219 183.926 184.299 184.019 184.326 C 184.112 184.353 184.326 184.366 184.659 184.366 L 191.609 184.366 C 191.942 184.366 192.156 184.353 192.249 184.326 C 192.342 184.299 192.472 184.219 192.639 184.086 C 192.812 183.953 192.912 183.846 192.939 183.766 C 192.966 183.679 192.979 183.496 192.979 183.216 L 192.979 182.686 L 195.329 182.686 L 195.329 183.806 C 195.329 184.366 195.106 184.833 194.659 185.206 L 193.989 185.766 C 193.542 186.139 193.092 186.326 192.639 186.326 L 183.629 186.326 C 183.182 186.326 182.732 186.139 182.279 185.766 L 181.609 185.206 C 181.162 184.833 180.939 184.366 180.939 183.806 L 180.939 169.246 C 180.939 168.686 181.162 168.219 181.609 167.846 L 182.279 167.286 C 182.732 166.913 183.182 166.726 183.629 166.726 L 192.639 166.726 C 193.092 166.726 193.542 166.913 193.989 167.286 L 194.659 167.846 C 195.106 168.219 195.329 168.686 195.329 169.246 Z" transform="matrix(1, 0, 0, 1, 0, 0)" style="fill: rgb(255, 255, 255); white-space: pre;"/>
  </g>
</svg>